<?xml version="1.0" encoding="UTF-8" standalone="no" ?>
<!DOCTYPE svg PUBLIC "-//W3C//DTD SVG 1.1//EN" "http://www.w3.org/Graphics/SVG/1.1/DTD/svg11.dtd">
<svg xmlns="http://www.w3.org/2000/svg" xmlns:xlink="http://www.w3.org/1999/xlink" version="1.1" width="128" height="128"  xml:space="preserve" >
<desc>Created with Fabric.js 3.6.2</desc>
<defs>
</defs>
<!-- <g transform="matrix(1.56 0 0 1.56 200 200)" id="Layer_1"  > -->
<path style="stroke: none; stroke-width: 1; stroke-dasharray: none; stroke-linecap: butt; stroke-dashoffset: 0; stroke-linejoin: miter; stroke-miterlimit: 4; fill: rgb(255,255,255); fill-rule: nonzero; opacity: 1;"   d="M 84 36 H 44 a 8 8 0 0 0 -8 8 V 84 a 8 8 0 0 0 8 8 H 84 a 8 8 0 0 0 8 -8 V 44 A 8 8 0 0 0 84 36 Z M 64 80 A 16 16 0 1 1 80 64 A 16 16 0 0 1 64 80 Z M 82 51 a 5 5 0 1 1 5 -5 A 5 5 0 0 1 82 51 Z" stroke-linecap="round" />
<!-- </g> -->
<!-- <g transform="matrix(1.56 0 0 1.56 200 200)" id="Layer_1"  > -->
<circle style="stroke: none; stroke-width: 1; stroke-dasharray: none; stroke-linecap: butt; stroke-dashoffset: 0; stroke-linejoin: miter; stroke-miterlimit: 4; fill: rgb(255,255,255); fill-rule: nonzero; opacity: 1;"  cx="64" cy="64" r="8" />
<!-- </g> -->
<!-- <g transform="matrix(1.56 0 0 1.56 200 200)" id="Layer_1"  > -->
<path style="stroke: none; stroke-width: 1; stroke-dasharray: none; stroke-linecap: butt; stroke-dashoffset: 0; stroke-linejoin: miter; stroke-miterlimit: 4; fill: rgb(255,255,255); fill-rule: nonzero; opacity: 1;"  d="M 64 0 a 64 64 0 1 0 64 64 A 64 64 0 0 0 64 0 Z m 36 84 a 16 16 0 0 1 -16 16 H 44 A 16 16 0 0 1 28 84 V 44 A 16 16 0 0 1 44 28 H 84 a 16 16 0 0 1 16 16 Z" stroke-linecap="round" />
<!-- </g> -->
</svg>